:SAMPLES-PER-SECOND 30
:FULLY-SPECIFIED
:DEGREES
1407
root  9.91361 38.8086 11.978 36.7116 87.9308 30.975
RightUpLeg  -22.2616 -9.80798 -16.7273
RightLeg  21.7397 -7.43715 -3.46664
RightFoot  -2.45775 -0.331657 4.06226
RightToes  0.000481921 0.542163 -0.142578
Spine  29.0403 0.0903961 2.19258
Spine1  -4.06988 0.819402 -0.824954
HEad  -25.3826 3.95352 -2.7835
LeftShoulder1  8.61783 -14.629 -41.2028
LeftArm  7.65713 -5.17285 -41.6582
LeftForeArm  -175.569 -61.9393 -162.825
LeftHand  -0.25398 0.0180481 5.50724
RightShoulder  5.36366 10.6926 31.836
RightArm  2.7674 -0.301095 43.3656
RightForeArm  164.795 62.4376 160.575
RightHand  -1.4249 3.76251 -18.2531
LeftUpLeg  -26.4172 22.302 -1.42907
LeftLeg  30.055 6.40507 4.34494
LeftFoot  -7.3588 0.0880417 -1.26955
LeftToes  1.06245e-005 4.65868e-005 -8.65517e-006
1408
root  9.87552 38.848 11.3992 34.8032 88.1958 29.0235
RightUpLeg  -23.6898 -11.0962 -15.065
RightLeg  24.6178 -7.45216 -3.93521
RightFoot  -3.68943 -0.292907 4.01074
RightToes  0.000481921 0.542163 -0.142578
Spine  29.4647 0.0669597 2.55287
Spine1  -4.07472 0.93799 -1.08533
HEad  -25.5221 3.91823 -2.95239
LeftShoulder1  8.57477 -14.6034 -41.0428
LeftArm  7.00889 -5.19717 -41.2268
LeftForeArm  -175.562 -61.8885 -162.861
LeftHand  -0.25398 0.0180481 5.50724
RightShoulder  5.37017 10.7175 31.8152
RightArm  2.84635 0.0440112 43.3192
RightForeArm  164.729 62.3525 160.634
RightHand  -1.39099 3.55982 -18.2156
LeftUpLeg  -26.4454 21.8643 -2.24626
LeftLeg  29.8294 6.61387 4.43798
LeftFoot  -7.53843 0.0694139 -0.729737
LeftToes  1.06245e-005 4.65868e-005 -8.65517e-006
1409
root  9.84388 38.9028 10.9086 25.5748 88.6352 19.7295
RightUpLeg  -25.1573 -13.9453 -11.986
RightLeg  27.8805 -7.96487 -4.78019
RightFoot  -5.19104 -0.251527 4.00196
RightToes  0.000481921 0.542163 -0.142578
Spine  29.7771 -8.68193e-006 2.87389
Spine1  -4.17539 0.900513 -0.889642
HEad  -25.1679 4.11581 -2.92753
LeftShoulder1  8.50882 -14.5082 -40.9342
LeftArm  6.25669 -5.01034 -40.8487
LeftForeArm  -175.593 -61.823 -162.904
LeftHand  -0.25398 0.0180481 5.50724
RightShoulder  5.39284 10.7338 31.9318
RightArm  2.99565 0.461404 43.0845
RightForeArm  164.804 62.434 160.578
RightHand  -1.38564 3.55079 -18.1653
LeftUpLeg  -26.5383 21.8094 -2.75714
LeftLeg  29.5921 6.55685 4.36389
LeftFoot  -7.56391 0.0477023 -0.0662282
LeftToes  1.06245e-005 4.65868e-005 -8.65517e-006
1410
root  9.82154 38.9504 10.5192 12.2344 89.073 6.31541
RightUpLeg  -26.5524 -16.4339 -8.44668
RightLeg  31.0274 -8.77174 -5.89099
RightFoot  -6.86675 -0.185831 3.56667
RightToes  0.000481921 0.542163 -0.142578
Spine  29.9035 -0.00222191 2.8951
Spine1  -4.21851 0.799707 -0.46195
HEad  -24.5935 4.25964 -2.59159
LeftShoulder1  8.45804 -14.451 -40.8101
LeftArm  5.56082 -4.7505 -40.5637
LeftForeArm  -175.641 -61.762 -162.941
LeftHand  -0.25398 0.0180481 5.50724
RightShoulder  5.41623 10.733 32.0991
RightArm  3.02454 0.776328 42.8556
RightForeArm  164.752 62.4887 160.53
RightHand  -1.40528 3.65923 -18.2048
LeftUpLeg  -26.6313 21.7102 -3.14078
LeftLeg  29.4084 6.61461 4.36785
LeftFoot  -7.70235 0.0299948 0.513507
LeftToes  1.06245e-005 4.65868e-005 -8.65517e-006
1411
root  9.81038 38.9759 10.2153 -1.14622 89.2815 -7.08541
RightUpLeg  -27.6552 -18.5376 -4.80078
RightLeg  33.2854 -8.75567 -6.38098
RightFoot  -8.4837 -0.151055 3.8202
RightToes  0.000481921 0.542163 -0.142578
Spine  29.8862 0.130844 2.61449
Spine1  -4.05063 0.773954 -0.0770089
HEad  -24.0613 4.3132 -2.21671
LeftShoulder1  8.43223 -14.4117 -40.7717
LeftArm  4.99986 -4.58989 -40.218
LeftForeArm  -175.626 -61.669 -163.007
LeftHand  -0.25398 0.0180481 5.50724
RightShoulder  5.40624 10.6944 32.132
RightArm  2.94389 0.923205 42.838
RightForeArm  164.593 62.4015 160.583
RightHand  -1.41654 3.68573 -18.2952
LeftUpLeg  -26.5627 21.4443 -3.44612
LeftLeg  29.1988 6.70172 4.38542
LeftFoot  -7.90931 0.0263053 0.708991
LeftToes  1.06245e-005 4.65868e-005 -8.65517e-006
1412
root  9.81429 38.9774 9.98053 -13.9379 89.3944 -19.9336
RightUpLeg  -28.1404 -20.7329 -0.908093
RightLeg  33.6736 -7.63713 -5.70041
RightFoot  -10.0662 -0.117467 4.2565
RightToes  0.000481921 0.542163 -0.142578
Spine  29.6947 0.327307 2.21912
Spine1  -3.81105 0.769909 0.326559
HEad  -23.6135 4.35033 -2.07217
LeftShoulder1  8.41702 -14.3472 -40.8518
LeftArm  4.56626 -4.41376 -39.7867
LeftForeArm  -175.562 -61.5179 -163.116
LeftHand  -0.25398 0.0180481 5.50724
RightShoulder  5.36346 10.6335 31.9931
RightArm  2.88509 0.868352 43.0574
RightForeArm  164.565 62.2338 160.71
RightHand  -1.41099 3.61637 -18.3589
LeftUpLeg  -26.612 21.203 -3.74257
LeftLeg  29.1519 6.73214 4.3952
LeftFoot  -8.00668 0.0193383 0.989578
LeftToes  1.06245e-005 4.65868e-005 -8.65517e-006
